<svg width="93" height="30" viewBox="0 0 93 30" fill="none" xmlns="http://www.w3.org/2000/svg">
    <path d="M67.2466 1.23377C65.7686 0.64741 63.4244 0 60.5258 0C53.1261 0 47.9153 3.94592 47.8833 9.5874C47.8218 13.7497 51.6141 16.0615 54.4504 17.4493C57.3494 18.8675 58.3349 19.7931 58.3349 21.0572C58.3054 22.9986 55.9923 23.8935 53.835 23.8935C50.8434 23.8935 49.2404 23.4321 46.8044 22.352L45.8177 21.889L44.7692 28.3942C46.5266 29.1949 49.7645 29.9054 53.1261 29.9365C60.9884 29.9365 66.1071 26.0517 66.1677 20.0398C66.1976 16.7409 64.1952 14.2131 59.878 12.1475C57.2572 10.8216 55.6522 9.92749 55.6522 8.5708C55.683 7.33745 57.0097 6.07418 59.9682 6.07418C62.4041 6.0123 64.1939 6.59784 65.5498 7.18379L66.2275 7.49151L67.2466 1.23377Z" fill="#3362AB"/>
    <path d="M40.0833 29.5047H32.5901L37.2769 0.525302H44.7696L40.0833 29.5047Z" fill="#3362AB"/>
    <path fill-rule="evenodd" clip-rule="evenodd" d="M86.4549 0.525302H80.659C78.8716 0.525302 77.5137 1.04897 76.7426 2.92973L65.6125 29.5042H73.4748C73.4748 29.5042 74.7692 25.9275 75.0474 25.1572H84.668C84.8831 26.1746 85.5621 29.5042 85.5621 29.5042H92.5L86.4549 0.525302ZM77.2056 19.2383C77.8227 17.5735 80.1972 11.1301 80.1972 11.1301C80.1847 11.1549 80.2812 10.8872 80.4252 10.488L80.427 10.4831L80.4282 10.4799C80.6432 9.88368 80.9625 8.99865 81.183 8.35567L81.7067 10.8527C81.7067 10.8527 83.1257 17.7894 83.4338 19.2383H77.2056Z" fill="#3362AB"/>
    <path d="M26.3315 0.525302L18.9933 20.2865L18.1914 16.2787L18.1906 16.2762L15.5706 2.96128C15.1391 1.11043 13.8132 0.586355 12.1791 0.525302H0.123335L0 1.11084C2.94035 1.86274 5.57022 2.94623 7.87454 4.29342L14.5532 29.4739H22.477L34.2549 0.525302H26.3315Z" fill="#3362AB"/>
</svg>
